<?xml version="1.0" encoding="iso-8859-1"?>
<!-- Generator: Adobe Illustrator 18.1.1, SVG Export Plug-In . SVG Version: 6.00 Build 0)  -->
<!DOCTYPE svg PUBLIC "-//W3C//DTD SVG 1.1//EN" "http://www.w3.org/Graphics/SVG/1.1/DTD/svg11.dtd">
<svg version="1.1" id="Layer_1" xmlns="http://www.w3.org/2000/svg" xmlns:xlink="http://www.w3.org/1999/xlink" x="0px" y="0px"
	 width="30px" height="30px" viewBox="0 0 30 30" style="enable-background:new 0 0 30 30;" xml:space="preserve">
<g id="A-Z_2">
	<g id="Search_2">
	</g>
	<g id="Funnel_icon">
		<g id="EDIT">
		</g>
		<g id="Submitted_6">
			<g id="Isolation_Mode">
				<g id="icon-delete">
				</g>
				<g id="icon-fullscreen">
				</g>
			</g>
		</g>
	</g>
	<path d="M20.966,16H7.78c-0.552,0-1-0.447-1-1s0.448-1,1-1h13.186c0.553,0,1,0.447,1,1S21.519,16,20.966,16z"/>
	<g>
		<path style="fill:none;stroke:#000000;stroke-width:2;stroke-linecap:round;stroke-linejoin:round;stroke-miterlimit:10;" d="
			M6.879,15.101"/>
		<path d="M11.435,19.916c-0.227,0-0.454-0.076-0.642-0.233l-4.556-3.815c-0.423-0.354-0.479-0.985-0.125-1.408
			c0.354-0.424,0.984-0.48,1.409-0.125l4.556,3.815c0.423,0.354,0.479,0.985,0.125,1.408C12.004,19.794,11.72,19.916,11.435,19.916z
			"/>
		<path d="M6.88,16.101c-0.279,0-0.556-0.116-0.753-0.342c-0.364-0.416-0.321-1.048,0.095-1.411l4.599-4.017
			c0.416-0.363,1.049-0.319,1.411,0.095c0.364,0.416,0.321,1.048-0.095,1.411l-4.599,4.017C7.348,16.02,7.113,16.101,6.88,16.101z"
			/>
	</g>
</g>
</svg>
