<?xml version="1.0" encoding="iso-8859-1"?>
<!-- Generator: Adobe Illustrator 18.1.1, SVG Export Plug-In . SVG Version: 6.00 Build 0)  -->
<!DOCTYPE svg PUBLIC "-//W3C//DTD SVG 1.1//EN" "http://www.w3.org/Graphics/SVG/1.1/DTD/svg11.dtd">
<svg version="1.1" id="Layer_1" xmlns="http://www.w3.org/2000/svg" xmlns:xlink="http://www.w3.org/1999/xlink" x="0px" y="0px"
	 width="30px" height="30px" viewBox="0 0 30 30" style="enable-background:new 0 0 30 30;" xml:space="preserve">
<g id="A-Z_2">
	<g id="Search_2">
	</g>
	<g id="Funnel_icon">
		<g id="EDIT">
		</g>
		<g id="Submitted_6">
			<g id="Isolation_Mode">
				<g id="icon-delete">
				</g>
				<g id="icon-fullscreen">
				</g>
			</g>
		</g>
	</g>
	<path d="M19.134,8.676c-0.006,0-0.01,0.004-0.016,0.004c0.102,0.07,0.174,0.199,0.174,0.353c0,0.227-0.15,0.41-0.334,0.41
		c-0.099,0-0.185-0.055-0.247-0.138c0.023,0.288,0.199,0.516,0.422,0.516c0.238,0,0.431-0.256,0.431-0.573
		S19.372,8.676,19.134,8.676z"/>
	<path d="M15.17,1.5C7.714,1.5,1.67,7.544,1.67,15s6.044,13.5,13.5,13.5c7.456,0,13.5-6.044,13.5-13.5S22.625,1.5,15.17,1.5z
		 M20.488,10.839c-0.252,1.42-0.695,2.777-0.932,3.437c-1.11,3.088-3.134,4.375-5.318,4.434l-0.068,0.915l1.789,1.787l-0.075,1.983
		l-2.72,2.723l-2.815-2.811l2.891-2.895l-0.846-1.908l0.091,0.005c-2.965-0.74-5.862-3.414-6.887-6.681
		c1.206,0.171,2.412,0.342,3.619,0.512c-0.353-0.732-0.73-1.678-1.114-2.922l7.015,3.757c0.064,0.009,0.129,0.018,0.193,0.027
		c0.262-1.344,1.225-7.696,3.852-7.015c1.245,0.323,1.571,1.644,1.501,3.151l1.524,1.5H20.488z"/>
</g>
</svg>
