<?xml version="1.0" encoding="iso-8859-1"?>
<!-- Generator: Adobe Illustrator 18.1.1, SVG Export Plug-In . SVG Version: 6.00 Build 0)  -->
<!DOCTYPE svg PUBLIC "-//W3C//DTD SVG 1.1//EN" "http://www.w3.org/Graphics/SVG/1.1/DTD/svg11.dtd">
<svg version="1.1" id="Layer_1" xmlns="http://www.w3.org/2000/svg" xmlns:xlink="http://www.w3.org/1999/xlink" x="0px" y="0px"
	 width="30px" height="30px" viewBox="0 0 30 30" style="enable-background:new 0 0 30 30;" xml:space="preserve">
<g id="A-Z_2">
	<g id="Search_2">
	</g>
	<g id="Funnel_icon">
		<g id="EDIT">
		</g>
		<g id="Submitted_6">
			<g id="Isolation_Mode">
				<g id="icon-delete">
				</g>
				<g id="icon-fullscreen">
				</g>
			</g>
		</g>
	</g>
	<path d="M16.78,15l6.487-6.487c0.492-0.492,0.492-1.289,0-1.78c-0.491-0.492-1.289-0.492-1.78,0L15,13.22L8.513,6.733
		c-0.491-0.492-1.289-0.492-1.78,0c-0.492,0.492-0.492,1.289,0,1.78L13.22,15l-6.487,6.487c-0.492,0.492-0.492,1.289,0,1.78
		c0.246,0.246,0.568,0.369,0.89,0.369s0.645-0.123,0.89-0.369L15,16.78l6.487,6.487c0.246,0.246,0.568,0.369,0.89,0.369
		s0.645-0.123,0.89-0.369c0.492-0.492,0.492-1.289,0-1.78L16.78,15z"/>
</g>
</svg>
