<?xml version="1.0" encoding="iso-8859-1"?>
<!-- Generator: Adobe Illustrator 18.1.1, SVG Export Plug-In . SVG Version: 6.00 Build 0)  -->
<!DOCTYPE svg PUBLIC "-//W3C//DTD SVG 1.1//EN" "http://www.w3.org/Graphics/SVG/1.1/DTD/svg11.dtd">
<svg version="1.1" id="Layer_1" xmlns="http://www.w3.org/2000/svg" xmlns:xlink="http://www.w3.org/1999/xlink" x="0px" y="0px"
	 width="30px" height="30px" viewBox="0 0 30 30" style="enable-background:new 0 0 30 30;" xml:space="preserve">
<g id="A-Z_2">
	<g id="Search_2">
	</g>
	<g id="Funnel_icon">
		<g id="EDIT">
		</g>
		<g id="Submitted_6">
			<g id="Isolation_Mode">
				<g id="icon-delete">
				</g>
				<g id="icon-fullscreen">
				</g>
			</g>
		</g>
	</g>
	<path d="M23.301,16.079c0-1.882-1.586-3.505-3.837-4.206c-0.646-2.084-3.228-3.634-6.309-3.634c-3.56,0-6.456,2.066-6.456,4.612
		c0,1.199,0.646,2.343,1.789,3.191L7.529,17.85c-0.092,0.184-0.055,0.406,0.074,0.535c0.092,0.092,0.203,0.129,0.332,0.129
		c0.074,0,0.148-0.018,0.221-0.055l2.435-1.273c0.701,2.011,3.228,3.505,6.253,3.505c0.83,0,1.66-0.111,2.435-0.332l2.582,1.347
		c0.074,0.037,0.148,0.055,0.221,0.055c0.111,0,0.24-0.055,0.332-0.129c0.148-0.148,0.184-0.369,0.074-0.535l-0.959-1.808
		C22.655,18.422,23.301,17.278,23.301,16.079z M10.813,16.19c-0.111-0.037-0.24-0.018-0.35,0.037l-1.439,0.756l0.461-0.885
		c0.111-0.203,0.037-0.48-0.166-0.609c-1.107-0.701-1.697-1.642-1.697-2.656c0-2.029,2.49-3.689,5.534-3.689s5.534,1.66,5.534,3.689
		s-2.49,3.708-5.534,3.708C12.344,16.54,11.551,16.43,10.813,16.19z M20.681,18.735c-0.203,0.129-0.277,0.387-0.166,0.609
		l0.461,0.867l-1.439-0.756c-0.074-0.037-0.148-0.055-0.221-0.055c-0.055,0-0.092,0-0.129,0.018
		c-0.738,0.24-1.531,0.351-2.343,0.351c-2.398,0-4.427-1.015-5.202-2.435c0.498,0.092,0.996,0.129,1.513,0.129
		c3.542,0,6.438-2.047,6.456-4.575c1.66,0.646,2.767,1.826,2.767,3.191C22.378,17.075,21.77,18.034,20.681,18.735z"/>
</g>
</svg>
