<?xml version="1.0" encoding="iso-8859-1"?>
<!-- Generator: Adobe Illustrator 18.1.1, SVG Export Plug-In . SVG Version: 6.00 Build 0)  -->
<!DOCTYPE svg PUBLIC "-//W3C//DTD SVG 1.1//EN" "http://www.w3.org/Graphics/SVG/1.1/DTD/svg11.dtd">
<svg version="1.1" id="Layer_1" xmlns="http://www.w3.org/2000/svg" xmlns:xlink="http://www.w3.org/1999/xlink" x="0px" y="0px"
	 width="30px" height="30px" viewBox="0 0 30 30" style="enable-background:new 0 0 30 30;" xml:space="preserve">
<g id="A-Z_2">
	<g id="Search_2">
	</g>
	<g id="Funnel_icon">
		<g id="EDIT">
		</g>
		<g id="Submitted_6">
			<g id="Isolation_Mode">
				<g id="icon-delete">
				</g>
				<g id="icon-fullscreen">
				</g>
			</g>
		</g>
	</g>
	<path d="M10.297,24.078h8.98c1.051,0,1.905-0.855,1.905-1.905V10.937h1.653V9.754h-3.679V7.827c0-1.051-0.855-1.905-1.905-1.905
		h-4.928c-1.051,0-1.905,0.855-1.905,1.905v1.927H6.739v1.183h1.653v11.235C8.392,23.223,9.247,24.078,10.297,24.078z M16.13,22.895
		h-2.686V10.937h2.686V22.895z M20,10.937v11.235c0,0.398-0.324,0.723-0.723,0.723h-1.965V10.937H20z M11.601,7.827
		c0-0.399,0.324-0.723,0.723-0.723h4.928c0.399,0,0.723,0.324,0.723,0.723v1.927h-6.373V7.827z M9.575,10.937h2.687v11.958h-1.964
		c-0.398,0-0.723-0.324-0.723-0.723V10.937z"/>
</g>
</svg>
