<?xml version="1.0" encoding="iso-8859-1"?>
<!-- Generator: Adobe Illustrator 18.1.1, SVG Export Plug-In . SVG Version: 6.00 Build 0)  -->
<!DOCTYPE svg PUBLIC "-//W3C//DTD SVG 1.1//EN" "http://www.w3.org/Graphics/SVG/1.1/DTD/svg11.dtd">
<svg version="1.1" id="Layer_1" xmlns="http://www.w3.org/2000/svg" xmlns:xlink="http://www.w3.org/1999/xlink" x="0px" y="0px"
	 width="30px" height="30px" viewBox="0 0 30 30" style="enable-background:new 0 0 30 30;" xml:space="preserve">
<g id="A-Z_2">
	<g id="Search_2">
	</g>
	<g id="Funnel_icon">
		<g id="EDIT">
		</g>
		<g id="Submitted_6">
			<g id="Isolation_Mode">
				<g id="icon-delete">
				</g>
				<g id="icon-fullscreen">
				</g>
			</g>
		</g>
	</g>
	<path d="M6.936,23.428l1.593-0.533l3.791-1.27c0.003-0.001,0.006-0.003,0.009-0.005c0.006-0.002,0.011-0.005,0.017-0.008
		c0.025-0.011,0.048-0.027,0.068-0.045c0.003-0.003,0.006-0.003,0.009-0.006l10.169-10.21c1.091-1.096,1.092-2.878,0-3.973
		s-2.868-1.094-3.959,0.001L8.462,17.59c-0.003,0.003-0.003,0.006-0.006,0.009c-0.018,0.02-0.034,0.043-0.045,0.068
		c-0.003,0.006-0.006,0.011-0.008,0.017c-0.001,0.003-0.003,0.006-0.005,0.009l-1.264,3.805l-0.531,1.599
		c-0.031,0.094-0.007,0.199,0.063,0.269C6.738,23.435,6.842,23.46,6.936,23.428z M19.002,7.752L19.002,7.752
		c0.887-0.891,2.331-0.891,3.218-0.001c0.887,0.89,0.887,2.339,0,3.23l-9.984,10.024l-0.741-0.743l9.587-9.625
		c0.102-0.103,0.102-0.269,0-0.372c-0.102-0.102-0.268-0.103-0.37,0l-9.587,9.625l-0.946-0.949l9.587-9.625
		c0.102-0.103,0.102-0.269,0-0.372c-0.102-0.103-0.268-0.103-0.37,0l-9.587,9.625l-0.791-0.794L19.002,7.752z M8.761,18.262l2.99,3
		l-3.157,1.057c-0.006-0.012-0.014-0.022-0.02-0.034c-0.036-0.071-0.077-0.14-0.122-0.206c-0.014-0.02-0.027-0.04-0.041-0.059
		c-0.056-0.077-0.117-0.151-0.185-0.219c-0.068-0.068-0.142-0.129-0.219-0.186c-0.02-0.014-0.039-0.028-0.059-0.041
		c-0.065-0.045-0.133-0.085-0.204-0.122c-0.012-0.006-0.023-0.015-0.035-0.021L8.761,18.262z"/>
</g>
</svg>
