<?xml version="1.0" encoding="iso-8859-1"?>
<!-- Generator: Adobe Illustrator 18.1.1, SVG Export Plug-In . SVG Version: 6.00 Build 0)  -->
<!DOCTYPE svg PUBLIC "-//W3C//DTD SVG 1.1//EN" "http://www.w3.org/Graphics/SVG/1.1/DTD/svg11.dtd">
<svg version="1.1" id="Layer_1" xmlns="http://www.w3.org/2000/svg" xmlns:xlink="http://www.w3.org/1999/xlink" x="0px" y="0px"
	 width="30px" height="30px" viewBox="0 0 30 30" style="enable-background:new 0 0 30 30;" xml:space="preserve">
<g id="A-Z_2">
	<g id="Search_2">
	</g>
	<g id="Funnel_icon">
		<g id="EDIT">
		</g>
		<g id="Submitted_6">
			<g id="Isolation_Mode">
				<g id="icon-delete">
				</g>
				<g id="icon-fullscreen">
				</g>
			</g>
		</g>
	</g>
	<g>
		<path d="M14.032,25.378c-0.276,0-0.5-0.224-0.5-0.5V14.28L7.29,5.41C7.13,5.184,7.185,4.872,7.411,4.713
			c0.226-0.16,0.538-0.105,0.696,0.121l6.333,9c0.06,0.084,0.091,0.185,0.091,0.288v10.756
			C14.532,25.154,14.308,25.378,14.032,25.378z"/>
		<path d="M15.968,23.181c-0.276,0-0.5-0.224-0.5-0.5v-8.559c0-0.103,0.032-0.204,0.091-0.288l6.333-9
			c0.159-0.226,0.471-0.281,0.697-0.121c0.226,0.159,0.279,0.471,0.121,0.696l-6.242,8.871v8.4
			C16.469,22.957,16.244,23.181,15.968,23.181z"/>
		<path style="fill:none;stroke:#000000;stroke-linecap:round;stroke-linejoin:round;stroke-miterlimit:10;" d="M10.679,8.823"/>
	</g>
</g>
</svg>
