<?xml version="1.0" encoding="iso-8859-1"?>
<!-- Generator: Adobe Illustrator 18.1.1, SVG Export Plug-In . SVG Version: 6.00 Build 0)  -->
<!DOCTYPE svg PUBLIC "-//W3C//DTD SVG 1.1//EN" "http://www.w3.org/Graphics/SVG/1.1/DTD/svg11.dtd">
<svg version="1.1" id="Layer_1" xmlns="http://www.w3.org/2000/svg" xmlns:xlink="http://www.w3.org/1999/xlink" x="0px" y="0px"
	 width="30px" height="30px" viewBox="0 0 30 30" style="enable-background:new 0 0 30 30;" xml:space="preserve">
<g id="A-Z_2">
	<g id="Search_2">
	</g>
	<g id="Funnel_icon">
		<g id="EDIT">
		</g>
		<g id="Submitted_6">
			<g id="Isolation_Mode">
				<g id="icon-delete">
				</g>
				<g id="icon-fullscreen">
				</g>
			</g>
		</g>
	</g>
	<path d="M20.066,16H6.879c-0.553,0-1-0.447-1-1s0.447-1,1-1h13.187c0.553,0,1,0.447,1,1S20.618,16,20.066,16z"/>
	<g>
		<path style="fill:none;stroke:#000000;stroke-width:2;stroke-linecap:round;stroke-linejoin:round;stroke-miterlimit:10;" d="
			M20.966,15.101"/>
		<path d="M16.411,19.916c-0.286,0-0.569-0.122-0.768-0.358c-0.354-0.423-0.299-1.054,0.125-1.408l4.556-3.815
			c0.424-0.356,1.054-0.298,1.408,0.125s0.299,1.054-0.125,1.408l-4.556,3.815C16.865,19.84,16.637,19.916,16.411,19.916z"/>
		<path d="M20.966,16.101c-0.233,0-0.468-0.081-0.658-0.247l-4.599-4.017c-0.416-0.363-0.458-0.995-0.095-1.411
			c0.362-0.414,0.994-0.458,1.411-0.095l4.599,4.017c0.416,0.363,0.458,0.995,0.095,1.411
			C21.522,15.984,21.244,16.101,20.966,16.101z"/>
	</g>
</g>
</svg>
