<?xml version="1.0" encoding="iso-8859-1"?>
<!-- Generator: Adobe Illustrator 18.1.1, SVG Export Plug-In . SVG Version: 6.00 Build 0)  -->
<!DOCTYPE svg PUBLIC "-//W3C//DTD SVG 1.1//EN" "http://www.w3.org/Graphics/SVG/1.1/DTD/svg11.dtd">
<svg version="1.1" id="Layer_1" xmlns="http://www.w3.org/2000/svg" xmlns:xlink="http://www.w3.org/1999/xlink" x="0px" y="0px"
	 width="30px" height="30px" viewBox="0 0 30 30" style="enable-background:new 0 0 30 30;" xml:space="preserve">
<g id="A-Z_2">
	<g id="Search_2">
	</g>
	<g id="Funnel_icon">
		<g id="EDIT">
		</g>
		<g id="Submitted_6">
			<g id="Isolation_Mode">
				<g id="icon-delete">
				</g>
				<g id="icon-fullscreen">
				</g>
			</g>
		</g>
	</g>
	<g>
		<path d="M9.449,8.149c0.001,0,0.001,0,0.002,0C9.45,8.149,9.45,8.149,9.449,8.149z"/>
		<path d="M9.357,8.177c0.03-0.012,0.061-0.022,0.092-0.028C9.417,8.155,9.387,8.165,9.357,8.177z"/>
		<path d="M9.451,8.148c0.031-0.006,0.063-0.009,0.094-0.009C9.513,8.139,9.481,8.142,9.451,8.148z"/>
		<path d="M9.053,8.631c0-0.032,0.003-0.063,0.009-0.094C9.056,8.567,9.053,8.599,9.053,8.631z"/>
		<path d="M9.063,8.537c0-0.001,0-0.001,0-0.002C9.063,8.536,9.063,8.536,9.063,8.537z"/>
		<path d="M9.063,8.535c0.006-0.031,0.016-0.062,0.028-0.092C9.079,8.473,9.069,8.503,9.063,8.535z"/>
		<path d="M10.733,9.123l2.765,0c0.272,0,0.492-0.22,0.492-0.492c0-0.272-0.22-0.492-0.492-0.492l-3.953,0L9.357,8.177
			c-0.12,0.05-0.216,0.146-0.266,0.266L9.053,8.631l0,3.954c0,0.272,0.22,0.492,0.492,0.492c0.272,0,0.492-0.22,0.492-0.492l0-2.766
			l3.312,3.312l0.696-0.696L10.733,9.123z"/>
	</g>
	<g>
		<path d="M22.398,21.924c-0.001,0-0.001,0-0.002,0C22.397,21.924,22.398,21.924,22.398,21.924z"/>
		<path d="M22.49,21.896c-0.03,0.012-0.061,0.022-0.092,0.028C22.43,21.917,22.461,21.908,22.49,21.896z"/>
		<path d="M22.397,21.924c-0.031,0.006-0.063,0.009-0.094,0.009C22.335,21.934,22.366,21.93,22.397,21.924z"/>
		<path d="M22.794,21.442c0,0.032-0.003,0.063-0.009,0.094C22.791,21.505,22.794,21.474,22.794,21.442z"/>
		<path d="M22.785,21.536c0,0.001,0,0.001,0,0.002C22.785,21.537,22.785,21.536,22.785,21.536z"/>
		<path d="M22.785,21.537c-0.006,0.031-0.016,0.062-0.028,0.092C22.769,21.6,22.778,21.569,22.785,21.537z"/>
		<path d="M21.114,20.95l-2.765,0c-0.272,0-0.492,0.22-0.492,0.492c0,0.272,0.22,0.492,0.492,0.492l3.953,0l0.188-0.038
			c0.12-0.05,0.216-0.146,0.266-0.266l0.038-0.188l0-3.954c0-0.272-0.22-0.492-0.492-0.492c-0.272,0-0.492,0.22-0.492,0.492l0,2.766
			l-3.312-3.312l-0.696,0.696L21.114,20.95z"/>
	</g>
	<path d="M22.757,8.443c-0.05-0.12-0.146-0.216-0.266-0.266l-0.188-0.038h-3.954c-0.272,0-0.492,0.22-0.492,0.492
		c0,0.272,0.22,0.492,0.492,0.492h2.766l0.002,0.002L10.037,20.204v-2.716c0-0.272-0.22-0.492-0.492-0.492s-0.492,0.22-0.492,0.492
		v3.953l0.038,0.188c0.05,0.12,0.146,0.216,0.266,0.266l0.188,0.038l3.954,0c0.272,0,0.492-0.22,0.492-0.492
		s-0.22-0.492-0.492-0.492h-2.766L21.81,9.845v2.739c0,0.272,0.22,0.492,0.492,0.492s0.492-0.22,0.492-0.492l0-3.953L22.757,8.443z"
		/>
</g>
</svg>
