<?xml version="1.0" encoding="iso-8859-1"?>
<!-- Generator: Adobe Illustrator 18.1.1, SVG Export Plug-In . SVG Version: 6.00 Build 0)  -->
<!DOCTYPE svg PUBLIC "-//W3C//DTD SVG 1.1//EN" "http://www.w3.org/Graphics/SVG/1.1/DTD/svg11.dtd">
<svg version="1.1" id="Layer_1" xmlns="http://www.w3.org/2000/svg" xmlns:xlink="http://www.w3.org/1999/xlink" x="0px" y="0px"
	 width="30px" height="30px" viewBox="0 0 30 30" style="enable-background:new 0 0 30 30;" xml:space="preserve">
<g id="A-Z_2">
	<g id="Search_2">
	</g>
	<g id="Funnel_icon">
		<g id="EDIT">
		</g>
		<g id="Submitted_6">
			<g id="Isolation_Mode">
				<g id="icon-delete">
				</g>
				<g id="icon-fullscreen">
				</g>
			</g>
		</g>
	</g>
	<path d="M23.167,9h-14c-0.276,0-0.5-0.224-0.5-0.5S8.89,8,9.167,8h14c0.276,0,0.5,0.224,0.5,0.5S23.443,9,23.167,9z"/>
	<path d="M7.259,8.968H5.954c-0.276,0-0.5-0.224-0.5-0.5s0.224-0.5,0.5-0.5h1.305c0.276,0,0.5,0.224,0.5,0.5
		S7.535,8.968,7.259,8.968z"/>
	<path d="M23.167,11.883h-14c-0.276,0-0.5-0.224-0.5-0.5s0.224-0.5,0.5-0.5h14c0.276,0,0.5,0.224,0.5,0.5
		S23.443,11.883,23.167,11.883z"/>
	<path d="M7.259,11.852H5.954c-0.276,0-0.5-0.224-0.5-0.5s0.224-0.5,0.5-0.5h1.305c0.276,0,0.5,0.224,0.5,0.5
		S7.535,11.852,7.259,11.852z"/>
	<path d="M23.167,14.767h-14c-0.276,0-0.5-0.224-0.5-0.5s0.224-0.5,0.5-0.5h14c0.276,0,0.5,0.224,0.5,0.5
		S23.443,14.767,23.167,14.767z"/>
	<path d="M7.259,14.734H5.954c-0.276,0-0.5-0.224-0.5-0.5s0.224-0.5,0.5-0.5h1.305c0.276,0,0.5,0.224,0.5,0.5
		S7.535,14.734,7.259,14.734z"/>
	<path d="M23.167,17.649h-14c-0.276,0-0.5-0.224-0.5-0.5s0.224-0.5,0.5-0.5h14c0.276,0,0.5,0.224,0.5,0.5
		S23.443,17.649,23.167,17.649z"/>
	<path d="M7.259,17.617H5.954c-0.276,0-0.5-0.224-0.5-0.5s0.224-0.5,0.5-0.5h1.305c0.276,0,0.5,0.224,0.5,0.5
		S7.535,17.617,7.259,17.617z"/>
	<path d="M23.167,20.533h-14c-0.276,0-0.5-0.224-0.5-0.5s0.224-0.5,0.5-0.5h14c0.276,0,0.5,0.224,0.5,0.5
		S23.443,20.533,23.167,20.533z"/>
	<path d="M7.259,20.501H5.954c-0.276,0-0.5-0.224-0.5-0.5s0.224-0.5,0.5-0.5h1.305c0.276,0,0.5,0.224,0.5,0.5
		S7.535,20.501,7.259,20.501z"/>
</g>
</svg>
