<?xml version="1.0" encoding="iso-8859-1"?>
<!-- Generator: Adobe Illustrator 18.1.1, SVG Export Plug-In . SVG Version: 6.00 Build 0)  -->
<!DOCTYPE svg PUBLIC "-//W3C//DTD SVG 1.1//EN" "http://www.w3.org/Graphics/SVG/1.1/DTD/svg11.dtd">
<svg version="1.1" id="Layer_1" xmlns="http://www.w3.org/2000/svg" xmlns:xlink="http://www.w3.org/1999/xlink" x="0px" y="0px"
	 width="30px" height="30px" viewBox="0 0 30 30" style="enable-background:new 0 0 30 30;" xml:space="preserve">
<g id="A-Z_2">
	<g id="Search_2">
	</g>
	<g id="Funnel_icon">
		<g id="EDIT">
		</g>
		<g id="Submitted_6">
			<g id="Isolation_Mode">
				<g id="icon-delete">
				</g>
				<g id="icon-fullscreen">
				</g>
			</g>
		</g>
	</g>
	<path d="M11.809,19.765c-3.943,0-7.151-3.208-7.151-7.151s3.208-7.151,7.151-7.151c3.943,0,7.151,3.208,7.151,7.151
		S15.752,19.765,11.809,19.765z M11.809,6.462c-3.392,0-6.151,2.759-6.151,6.151s2.759,6.151,6.151,6.151
		c3.392,0,6.151-2.759,6.151-6.151S15.201,6.462,11.809,6.462z"/>
	<path d="M24.207,25.512c-0.128,0-0.256-0.049-0.354-0.146l-7.614-7.614c-0.195-0.195-0.195-0.512,0-0.707s0.512-0.195,0.707,0
		l7.614,7.614c0.195,0.195,0.195,0.512,0,0.707C24.463,25.463,24.335,25.512,24.207,25.512z"/>
</g>
</svg>
