<?xml version="1.0" encoding="iso-8859-1"?>
<!-- Generator: Adobe Illustrator 18.1.1, SVG Export Plug-In . SVG Version: 6.00 Build 0)  -->
<!DOCTYPE svg PUBLIC "-//W3C//DTD SVG 1.1//EN" "http://www.w3.org/Graphics/SVG/1.1/DTD/svg11.dtd">
<svg version="1.1" id="Layer_1" xmlns="http://www.w3.org/2000/svg" xmlns:xlink="http://www.w3.org/1999/xlink" x="0px" y="0px"
	 width="30px" height="30px" viewBox="0 0 30 30" style="enable-background:new 0 0 30 30;" xml:space="preserve">
<g id="A-Z_2">
	<g id="Search_2">
	</g>
	<g id="Funnel_icon">
		<g id="EDIT">
		</g>
		<g id="Submitted_6">
			<g id="Isolation_Mode">
				<g id="icon-delete">
				</g>
				<g id="icon-fullscreen">
				</g>
			</g>
		</g>
	</g>
	<rect x="13.695" y="7.147" width="3.32" height="9.273"/>
	<path d="M15.409,1.162C7.779,1.162,1.571,7.37,1.571,15s6.208,13.838,13.838,13.838S29.247,22.63,29.247,15
		S23.039,1.162,15.409,1.162z M15.409,28.162C8.151,28.162,2.247,22.258,2.247,15S8.151,1.838,15.409,1.838S28.571,7.742,28.571,15
		S22.667,28.162,15.409,28.162z"/>
	<path d="M15.335,17.494c-1.174,0-2.085,0.932-2.085,2.065s0.911,2.086,2.085,2.086c1.195,0,2.126-0.952,2.126-2.086
		S16.53,17.494,15.335,17.494z"/>
</g>
</svg>
