<?xml version="1.0" encoding="iso-8859-1"?>
<!-- Generator: Adobe Illustrator 18.1.1, SVG Export Plug-In . SVG Version: 6.00 Build 0)  -->
<!DOCTYPE svg PUBLIC "-//W3C//DTD SVG 1.1//EN" "http://www.w3.org/Graphics/SVG/1.1/DTD/svg11.dtd">
<svg version="1.1" id="Layer_1" xmlns="http://www.w3.org/2000/svg" xmlns:xlink="http://www.w3.org/1999/xlink" x="0px" y="0px"
	 width="30px" height="30px" viewBox="0 0 30 30" style="enable-background:new 0 0 30 30;" xml:space="preserve">
<g id="A-Z_2">
	<g id="Search_2">
	</g>
	<g id="Funnel_icon">
		<g id="EDIT">
		</g>
		<g id="Submitted_6">
			<g id="Isolation_Mode">
				<g id="icon-delete">
				</g>
				<g id="icon-fullscreen">
				</g>
			</g>
		</g>
	</g>
	<path d="M15.169,1.012C7.457,1.012,1.181,7.287,1.181,15s6.275,13.988,13.988,13.988S29.158,22.713,29.158,15
		S22.882,1.012,15.169,1.012z M15.169,28.012C7.995,28.012,2.158,22.175,2.158,15S7.995,1.988,15.169,1.988S28.181,7.825,28.181,15
		S22.344,28.012,15.169,28.012z"/>
	<polygon points="19.343,9.723 15.174,13.883 11.005,9.714 9.892,10.826 14.056,14.999 9.883,19.162 11.014,20.277 15.173,16.118 
		19.332,20.286 20.447,19.155 16.291,15 20.456,10.835 	"/>
</g>
</svg>
